<svg xmlns="http://www.w3.org/2000/svg" width="24" height="24"><path d="M14.68 12.2a.76.76 0 0 0 0-1L12.69 9a.26.26 0 0 1 0-.35l2-2.17a.75.75 0 0 0-1.07-1L11 8.28a.76.76 0 0 0 0 1l2.67 2.85a.75.75 0 0 0 1.01.07ZM16.29 11.14a.75.75 0 0 0 1.07 1l2.67-2.85a.76.76 0 0 0 0-1l-2.65-2.86a.75.75 0 0 0-1.06 0 .73.73 0 0 0 0 1.06l2 2.18a.25.25 0 0 1 0 .34Z"/><path d="M23.41 3 21 .59A2 2 0 0 0 19.59 0H8a2 2 0 0 0-2 2v7.21a.25.25 0 0 0 .24.25c.37 0 1 0 1.49.09A.25.25 0 0 0 8 9.3V2.5a.5.5 0 0 1 .5-.5h10.88a.47.47 0 0 1 .35.15l2.12 2.12a.47.47 0 0 1 .15.35V18a.5.5 0 0 1-.5.5h-6.87a.25.25 0 0 0-.24.21 8 8 0 0 1-.39 1.46.24.24 0 0 0 .22.33H22a2 2 0 0 0 2-2V4.42A2 2 0 0 0 23.41 3Z"/><path d="M6.5 11a6.5 6.5 0 1 0 6.5 6.5A6.51 6.51 0 0 0 6.5 11Zm3.27 5.21-2.9 3.87a1.49 1.49 0 0 1-1.1.6h-.1a1.5 1.5 0 0 1-1.06-.44l-1.5-1.5a.75.75 0 0 1 1.06-1.06L5.47 19a.25.25 0 0 0 .37 0l2.73-3.64a.75.75 0 0 1 1.2.9Z"/></svg>