<svg xmlns="http://www.w3.org/2000/svg" xml:space="preserve" style="fill-rule:evenodd;clip-rule:evenodd;stroke-linejoin:round;stroke-miterlimit:2" viewBox="0 0 24 24"><path d="M7.757 13H3.25c-1.646 0-3-1.354-3-3V3c0-1.646 1.354-3 3-3h17.5c1.646 0 3 1.354 3 3v7c0 1.646-1.354 3-3 3h-4.846V9.727a3.347 3.347 0 0 0-3.346-3.345h-1.456a3.347 3.347 0 0 0-3.345 3.345V13ZM3.522 4.08c0 .96.79 1.75 1.75 1.75s1.75-.79 1.75-1.75-.79-1.75-1.75-1.75-1.75.79-1.75 1.75Zm8.25 1.066h8.606a1.396 1.396 0 0 0 0-2.79h-8.606a1.396 1.396 0 0 0 0 2.79ZM2.435 8.574c0 .96.79 1.75 1.75 1.75s1.75-.79 1.75-1.75-.79-1.75-1.75-1.75-1.75.79-1.75 1.75Z"/><path d="M17.12 17H14.5a.253.253 0 0 1-.25-.25v-6.38a2.4 2.4 0 0 0-2.375-2.226A2.4 2.4 0 0 0 9.5 10.37v8.53a.242.242 0 0 1-.239.267.24.24 0 0 1-.211-.127c-.45-.62-1-1.4-1-1.44a2.124 2.124 0 0 0-2.66-.66 2.091 2.091 0 0 0-1 2.42c.09.27 0 0 2.26 4.37A.524.524 0 0 0 7 24h14.25a.492.492 0 0 0 .35-.15.468.468 0 0 0 .15-.35v-1.67c.013-2.58-2.052-4.733-4.63-4.83Z" style="fill-rule:nonzero"/></svg>