<svg xmlns="http://www.w3.org/2000/svg" xml:space="preserve" style="fill-rule:evenodd;clip-rule:evenodd;stroke-linejoin:round;stroke-miterlimit:2" width="150" height="150" viewBox="0 0 150 150"><path d="M108.31 38.921c17.549 2.278 42.88 29.034 41.647 58-.387 9.097-7.603 35.963-20.035 36.263-6.537.157-17.054-9.493-17.054-18.6 0-5.998-.21-11.182-4.627-11.182-4.416 0-3.609 5.792-3.347 10.385.194 3.405 3.13 12.749 6.16 15.424 3.251 2.872 5.47 6.57 10.909 8.728 1.022.42-1.509 12.144-1.663 12.06-6.153-2.438-13.116-6.57-17.282-12.595-5.364-7.733-8.374-16.206-8.35-27.185 0-9.108 7.173-22.38 13.73-22.38 6.558 0 13.731 13.272 13.731 22.38 0 5.997 1.95 10.457 6.367 10.457s11.785-19.259 11.785-25.284c0-19.587-16.23-39.899-30.875-42.761v-.096c0-4.666-.377-9.22-1.095-13.614Zm.317 25.122c16.48.155 25.383 18.716 25.383 34.596 0 1.542-3.107 4.678-4.167 4.678-1.061 0-4.518-3.182-4.838-4.678-3.368-15.74-8.974-22.328-18.907-22.328-.043 0-.086 0-.13.002a80.615 80.615 0 0 0 2.659-12.27Zm-19.72 41.305c.216 7.8.85 17.558 2.765 22.55 2.488 6.445 4.147 9.22 7.117 13.563.752 1.093.752 2.887-.02 3.952-.347.588-.848.84-1.33.84-.502 0-6.952.095-7.337-.465-3.337-4.905-4.308-8.165-6.912-14.92-1.64-4.248-2.915-11.334-3.652-18.259 3.332-2 6.47-4.44 9.37-7.261Zm-14.92 10.103c.424 4.045 1.005 8 1.794 11.073.367 1.457 1.447 3.055.444 3.615-1.003.533-8.944-.346-9.33-1.803-.618-2.409-1.186-6.081-1.682-10.2a42.392 42.392 0 0 0 8.774-2.685ZM10.462 71.661a49.643 49.643 0 0 1-1.411-11.786V45.904C9.97 20.427 29.996 0 54.05 0c24.056 0 44.08 20.427 44.998 45.904v13.913c-.007 19.49-11.275 37.1-28.358 44.317a43.18 43.18 0 0 1-5.67 1.947c-.34-5.444-2.788-9.803-7.113-10.604 15.854-2.044 28.307-16.523 28.307-33.842 0-.512-.01-1.027-.031-1.54V46.183c.017-.687-.422-1.298-1.052-1.463-6.555-1.673-12.482-5.408-17-10.713a1.731 1.731 0 0 0-1.183-.555 1.724 1.724 0 0 0-1.247.555C53.36 48.338 36.622 46.182 28.35 46.182h-4.856c-.876.036-1.578.81-1.578 1.74v12.174a36.398 36.398 0 0 0 .13 4.945c-4.46 1.13-8.395 3.39-11.584 6.62Zm25.526-6.151a7.039 7.039 0 0 1-1.204-3.954c0-3.74 2.905-6.818 6.432-6.818 3.53 0 6.434 3.078 6.434 6.818 0 3.502-2.545 6.42-5.763 6.78a30.298 30.298 0 0 0-5.899-2.826Zm14.513 10.447h10.567c2.234 0 4.07 1.947 4.07 4.313 0 1.608-.847 3.086-2.193 3.826-.905.502-1.85.92-2.823 1.253-1.447.467-2.933.75-4.429.852-.922-3.72-2.77-7.199-5.192-10.244Zm10.014-14.4c0-3.74 2.905-6.82 6.434-6.82 3.53 0 6.434 3.08 6.434 6.82s-2.904 6.818-6.434 6.818c-3.529 0-6.434-3.078-6.434-6.819Z"/><path d="M6.147 102.976h2.305V94.04c0-11.963 9.365-21.806 20.747-21.806 9.153 0 17.276 6.367 19.885 15.59.108.379.163.77.163 1.164 0 2.219-1.74 4.047-3.85 4.047-1.697 0-3.2-1.179-3.69-2.884-1.656-5.786-6.758-9.776-12.508-9.776-7.162 0-13.057 6.19-13.063 13.717v7.269c0 .885.695 1.615 1.537 1.615H52.25c3.372 0 6.147 2.917 6.147 6.461v33.921c0 3.544-2.775 6.462-6.147 6.462H6.147c-3.372 0-6.147-2.918-6.147-6.462v-33.92c0-3.545 2.775-6.462 6.147-6.462Zm17.264 37.914H15.24a.495.495 0 0 1-.483-.5v-8.523c0-1.098-.867-2.003-1.924-2.003-1.054 0-1.92.905-1.92 2.003v9.023c0 2.2 1.736 4.013 3.844 4.013h8.655c1.057 0 1.924-.905 1.924-2.007 0-1.098-.867-2.006-1.924-2.006Zm-10.573-17.477c1.057 0 1.93-.908 1.93-2.01v-8.548c0-.274.219-.5.483-.5h8.197c1.057 0 1.93-.908 1.93-2.013 0-1.102-.873-2.01-1.93-2.01h-8.68c-2.117 0-3.857 1.816-3.857 4.022v9.05c0 1.1.87 2.009 1.927 2.009Zm29.306-15.08H33.49c-1.054 0-1.92.904-1.92 2.006 0 1.098.866 2.002 1.92 2.002h8.176c.261 0 .48.227.48.501v8.523c0 1.098.87 2.002 1.923 2.002 1.055 0 1.924-.904 1.924-2.002v-9.024c0-2.2-1.736-4.009-3.848-4.009Zm1.918 21.502c-1.054 0-1.927.908-1.927 2.01v8.538c0 .275-.215.5-.48.5h-8.19c-1.058 0-1.927.909-1.927 2.01 0 1.102.87 2.01 1.927 2.01h8.67c2.115 0 3.857-1.816 3.857-4.02v-9.038c0-1.102-.872-2.01-1.93-2.01Z"/></svg>
