<svg xmlns="http://www.w3.org/2000/svg" style="fill-rule:evenodd;clip-rule:evenodd;stroke-linejoin:round;stroke-miterlimit:2" width="150" height="150" viewBox="0 0 150 150"><path d="M132.622 129.56a45.2 45.2 0 0 0 1.721 4.3c7.812 17.07-17.716 15.7-23.493 16.14H13.04C5.888 150 0 144.33 0 137.44V71.502c0-6.889 5.888-12.56 13.041-12.56h73.356c1.787 0 3.26-1.419 3.26-3.14V41.674c-.006-8.634-13.484-26.808-26.616-27.405-16.334-.74-29.61 23.436-33.366 24.837-4.127 1.55-11.717-5.884-9.918-9.615C46.01-24.937 106.05 6.073 105.96 41.673v17.27h4.89c6.9 0 15.487 5.243 14.867 12.697-.026.258-.326 2.13-.293 2.368 1.2 9.583 18.688 14.657 23.507 25.973 6.253 14.708-16.895 5.413-16.882 11.574 0 .396-1.37 3.152-1.285 8.1-.208.045-.41.114-.613.22 0 0-12.976 6.538-26.564-1.255-1.885-1.08-4.324.697-5.445 2.512-1.122 1.815-.502 5.344 1.382 6.424 14.724 8.446 28.893 3.749 33.099 2.003Zm-38.53-45.843s5.288 6.58 13.269 5.915c3.234-.27 7.016-1.677 11.007-5.526a3.729 3.729 0 0 0 0-5.413c-1.552-1.489-4.07-1.489-5.621 0-2.243 2.166-4.251 3.158-6.07 3.31-3.796.32-6.254-2.915-6.254-2.915-1.33-1.683-3.82-2.01-5.568-.734-1.748 1.28-2.087 3.68-.763 5.363Zm-49.694 52.85c-1.91-2.939-2.98-4.816-4.583-9.174-1.5-4.114-2.328-12.717-2.387-18.174-.085-7.712 6.716-16.73 11.685-16.73 6.397 0 9.533 4.22 12.265 14.72.704 2.7 1.852 6.33 3.547 6.18 2.765-.239 2.608-5.495 2.72-6.531 1.245-11.43-6.88-23.826-18.532-22.595-7.734.823-17.443 7.536-18.91 21.992-.645 6.342 1.33 18.481 3.045 23.147 1.676 4.572 3.404 6.776 5.556 10.098 4.153 1.915 6.084-2.192 5.594-2.933Zm15.898-2.957c-3.443-1.627-4.936-3.963-7.03-5.91-1.95-1.808-4.31-6.104-4.434-8.408-.17-3.109-1.245-9.621.959-10.205 1.67-.433 2.093 4.898 2.908 8.183 1.48 5.96 9.755 12.628 13.967 12.522 8.007-.208 14.013-18.124 13.772-27.556-.529-20.504-20.123-35.155-31.416-35.155-8.014 0-31.743 14.111-30.823 37.503.202 5.118-.26 18.394 2.34 23.104 1.774 3.221 5.113 2.185 5.758 1.827.646-.383 1.305-2.066 1.07-3.052-1.48-6.047-1.826-17.144-1.826-20.101 0-3.982.49-7.568 1.454-10.638 2.908-9.295 14.971-19.493 22.04-19.493 9.93 0 22.763 10.506 24.028 24.742.691 7.762-4.193 20.498-7.036 20.498-2.85 0-6.683-4.723-7.355-8.27-1.448-7.618-5.536-13.867-8.627-13.823-4.225.07-7.935 4.333-7.961 15.147-.013 7.43 2.55 13.49 6.005 18.72 2.687 4.076 7.166 6.87 11.13 8.522.06.032 3.28-.352 3.704-2.826.183-1.067.15-4.025-2.627-5.331Z"/></svg>
