<svg width="150" height="150" xmlns="http://www.w3.org/2000/svg" style="fill-rule:evenodd;clip-rule:evenodd;stroke-linejoin:round;stroke-miterlimit:2"><path d="M93.481 38.745a12.57 12.57 0 0 1 2.343-.245c14.395 0 37.181 22.763 36.123 47.498-.318 7.43-6.243 29.373-16.45 29.618-5.368.129-14.004-7.753-14.004-15.192 0-4.898-.172-9.132-3.799-9.132-3.626 0-2.963 4.73-2.748 8.482.16 2.78 2.57 10.412 5.057 12.597 2.67 2.346 4.492 5.367 8.958 7.13.84.342-1.239 9.918-1.365 9.849-5.052-1.991-10.77-5.366-14.19-10.287-3.65-5.233-5.972-10.88-6.65-17.764 4.997-6.243 8.733-14.02 10.695-22.701.124-.011.248-.017.372-.017 5.385 0 11.275 10.84 11.275 18.279 0 4.898 1.601 8.54 5.228 8.54 3.626 0 9.676-15.73 9.676-20.65 0-16.624-14.39-33.887-26.757-35.133a59.09 59.09 0 0 0-3.764-10.872Zm-10.707 66.944c.326 2.2.753 4.153 1.315 5.61 2.043 5.264 3.405 7.53 5.844 11.078.617.892.617 2.357-.016 3.227-.285.48-.697.687-1.093.687-.411 0-5.707.077-6.024-.38-2.74-4.006-3.537-6.67-5.675-12.186a28.21 28.21 0 0 1-.898-2.797 42.924 42.924 0 0 0 6.547-5.24Zm16.007-46.52c13.038.683 20.072 15.51 20.072 28.233 0 1.259-2.55 3.82-3.422 3.82-.87 0-3.709-2.598-3.972-3.82-2.42-11.254-6.25-16.78-12.639-17.982a65.039 65.039 0 0 0-.04-10.25Z"/><path d="M14.51 15.21a6.872 6.872 0 0 0 4.32-6.37v-2C18.69 3.178 15.64.242 11.975.242 8.31.242 5.26 3.178 5.12 6.84v2.008c0 3.758 3.092 6.85 6.85 6.85.87 0 1.732-.165 2.54-.488ZM7.08 8.88V7.13c0-.133.107-.245.24-.25h.74c1.26 0 3.81.31 5.69-1.75a.267.267 0 0 1 .19-.08.272.272 0 0 1 .18.08 5.102 5.102 0 0 0 2.59 1.54.21.21 0 0 1 .16.21v2c.003.074.005.148.005.221 0 2.688-2.212 4.9-4.9 4.9s-4.9-2.212-4.9-4.9c0-.073.002-.147.005-.221Z" style="fill-rule:nonzero" transform="matrix(5.39005 0 0 5.68206 -9.237 20.596)"/><path d="M12.96 9.09c0 .538.442.98.98.98s.98-.442.98-.98a.984.984 0 0 0-.98-.98.984.984 0 0 0-.98.98m-3.92 0c0 .538.442.98.98.98s.98-.442.98-.98a.984.984 0 0 0-.98-.98.984.984 0 0 0-.98.98m3.86 3.42a2.79 2.79 0 0 0 .43-.18.621.621 0 0 0-.286-1.17h-2.028a.621.621 0 0 0-.286 1.17c.139.07.283.13.43.18a2.998 2.998 0 0 0 1.74 0Z" style="fill-rule:nonzero" transform="matrix(5.39005 0 0 5.68206 -9.237 20.596)"/><path d="M6.5 22H2.25a.251.251 0 0 1-.25-.25V17.5c0-.549-.451-1-1-1-.549 0-1 .451-1 1V22c0 1.097.903 2 2 2h4.5c.549 0 1-.451 1-1 0-.549-.451-1-1-1Z" style="fill-rule:nonzero" transform="matrix(7.14992 0 0 7.14993 0 -21.598)"/><path d="M1 7.5c.549 0 1-.451 1-1V2.25c0-.137.113-.25.25-.25H6.5c.549 0 1-.451 1-1 0-.549-.451-1-1-1H2C.903 0 0 .903 0 2v4.5c0 .549.451 1 1 1Z" style="fill-rule:nonzero" transform="scale(7.15575 7.15576)"/><path d="M23 16.5c-.549 0-1 .451-1 1v4.25c0 .137-.113.25-.25.25H17.5c-.549 0-1 .451-1 1 0 .549.451 1 1 1H22c1.097 0 2-.903 2-2v-4.5c0-.549-.451-1-1-1Z" style="fill-rule:nonzero" transform="matrix(7.14822 0 0 7.14823 -21.556 -21.557)"/><path d="M22 0h-4.5c-.549 0-1 .451-1 1 0 .549.451 1 1 1h4.25c.137 0 .25.113.25.25V6.5c0 .549.451 1 1 1 .549 0 1-.451 1-1V2c0-1.097-.903-2-2-2Z" style="fill-rule:nonzero" transform="matrix(7.14906 0 0 7.14904 -21.577 0)"/></svg>