<svg xmlns="http://www.w3.org/2000/svg" style="fill-rule:evenodd;clip-rule:evenodd;stroke-linejoin:round;stroke-miterlimit:2" width="150" height="150" viewBox="0 0 150 150"><path d="M94.124 44.146c19.387.45 35.392 16.96 36.135 37.48v11.363c-.006 15.917-9.259 30.3-23.285 36.193a35.266 35.266 0 0 1-13.692 2.775c-11.098 0-21.121-5.277-27.914-13.56 3.253-.986 6.359-2.442 9.273-4.308 4.795 5.07 11.41 8.226 18.67 8.226 14.489 0 26.41-12.568 26.41-27.841 0-.419-.008-.839-.026-1.257V81.854c.014-.562-.347-1.06-.864-1.195-5.382-1.367-10.249-4.418-13.959-8.75a1.425 1.425 0 0 0-.97-.453 1.42 1.42 0 0 0-1.024.453c-1.83 2.114-3.778 3.788-5.78 5.113a67.12 67.12 0 0 0 .85-10.684c0-7.913-1.37-15.43-3.824-22.192ZM98.62 94.41c0-3.054 2.385-5.568 5.283-5.568 2.898 0 5.283 2.514 5.283 5.568 0 3.055-2.385 5.57-5.283 5.57-2.898 0-5.283-2.515-5.283-5.57Zm-.323 19.432c-3.057.977-6.321.977-9.38 0a16.95 16.95 0 0 1-2.317-1.023c-1.103-.605-1.8-1.812-1.8-3.125 0-1.932 1.509-3.523 3.341-3.523H99.072c1.835 0 3.342 1.59 3.342 3.523 0 1.313-.695 2.52-1.8 3.125-.743.41-1.52.752-2.318 1.023ZM77.49 94.409c0-3.054 2.385-5.568 5.281-5.568 2.898 0 5.283 2.514 5.283 5.568 0 3.055-2.385 5.57-5.283 5.57-2.896 0-5.281-2.515-5.281-5.57Z"/><path d="M72.868 96.468c-5.338-1.091-12.543-8.255-12.543-15.05 0-4.897-.172-9.131-3.799-9.131-3.626 0-2.964 4.73-2.748 8.481.16 2.781 2.57 10.412 5.057 12.597 2.67 2.346 4.492 5.366 8.958 7.129.839.343-1.239 9.918-1.366 9.85-5.051-1.992-10.769-5.367-14.19-10.288-4.404-6.315-6.876-13.235-6.857-22.202 0-7.438 5.89-18.278 11.275-18.278 5.384 0 11.274 10.84 11.274 18.278 0 4.898 1.602 8.54 5.228 8.54 3.627 0 9.676-15.728 9.676-20.649 0-17.258-15.508-35.203-28.162-35.203-9.01 0-21.566 12.312-25.272 23.527-1.235 3.708-1.853 8.033-1.853 12.84 0 3.57.443 16.96 2.327 24.262.301 1.19 1.188 2.495.364 2.952-.823.435-7.344-.282-7.66-1.473-1.552-6.02-2.725-21.712-2.981-27.885-1.173-28.238 24.845-45.268 35.06-45.268 14.395 0 37.18 22.762 36.122 47.496-.152 3.563-1.593 10.461-4.178 16.705a9.872 9.872 0 0 0-4.109-.892c-5.593 0-10.133 4.66-10.133 10.398 0 1.14.179 2.238.51 3.264Zm-25.212 10.816c-.412 0-5.708.077-6.024-.38-2.74-4.006-3.537-6.669-5.675-12.185-2.186-5.63-3.58-17.36-3.58-24.73 0-13.595 12.533-28.763 22.39-29.751 14.857-1.49 22.918 14.54 22.918 28.159 0 1.259-2.551 3.82-3.422 3.82s-3.71-2.598-3.972-3.82c-2.765-12.854-7.369-18.235-15.525-18.235-6.331 0-14.296 10.527-14.19 19.828.076 6.591.429 17.336 2.345 22.302 2.043 5.265 3.405 7.53 5.844 11.078.617.893.617 2.358-.016 3.227-.285.48-.697.687-1.093.687Z"/><path d="M6.5 22H2.25a.251.251 0 0 1-.25-.25V17.5c0-.549-.451-1-1-1-.549 0-1 .451-1 1V22c0 1.097.903 2 2 2h4.5c.549 0 1-.451 1-1 0-.549-.451-1-1-1Z" style="fill-rule:nonzero" transform="matrix(7.14993 0 0 7.14954 .001 -21.596)"/><path d="M1 7.5c.549 0 1-.451 1-1V2.25c0-.137.113-.25.25-.25H6.5c.549 0 1-.451 1-1 0-.549-.451-1-1-1H2C.903 0 0 .903 0 2v4.5c0 .549.451 1 1 1Z" style="fill-rule:nonzero" transform="matrix(7.15576 0 0 7.15537 .001 0)"/><path d="M23 16.5c-.549 0-1 .451-1 1v4.25c0 .137-.113.25-.25.25H17.5c-.549 0-1 .451-1 1 0 .549.451 1 1 1H22c1.097 0 2-.903 2-2v-4.5c0-.549-.451-1-1-1Z" style="fill-rule:nonzero" transform="matrix(7.14822 0 0 7.14783 -21.558 -21.556)"/><path d="M22 0h-4.5c-.549 0-1 .451-1 1 0 .549.451 1 1 1h4.25c.137 0 .25.113.25.25V6.5c0 .549.451 1 1 1 .549 0 1-.451 1-1V2c0-1.097-.903-2-2-2Z" style="fill-rule:nonzero" transform="matrix(7.14905 0 0 7.14866 -21.577 0)"/></svg>
