<svg xmlns="http://www.w3.org/2000/svg" style="fill-rule:evenodd;clip-rule:evenodd;stroke-linejoin:round;stroke-miterlimit:2" width="150" height="150" viewBox="0 0 150 150"><path d="M15.79 59.436h5.92V42.16C21.71 19.032 45.767 0 75 0c23.51 0 44.376 12.311 51.08 30.143.275.73.418 1.486.418 2.248 0 4.291-4.469 7.826-9.893 7.826-4.357 0-8.218-2.28-9.473-5.577-4.256-11.186-17.36-18.9-32.132-18.9-18.395 0-33.537 11.967-33.553 26.52v14.053c0 1.711 1.785 3.123 3.948 3.123h88.816c8.66 0 15.79 5.64 15.79 12.491v65.581c0 6.852-7.13 12.492-15.79 12.492H15.79C7.129 150 0 144.36 0 137.508v-65.58c0-6.852 7.129-12.492 15.79-12.492Zm35.644 36.357c.269-2.842.806-5.59 1.563-8.207-3.039-1.737-6.592-2.524-10.57-1.843-8.195 1.405-17.282 14.122-15.98 24.796.703 5.784 3 14.903 5.377 19.187 2.32 4.191 3.245 6.233 5.937 9.2.308.338 4.752-.062 5.1-.087.331-.025.655-.213.852-.612.45-.719.308-1.868-.292-2.53-2.392-2.63-3.758-4.322-5.976-8.326-2.084-3.778-3.41-12.191-4.105-17.357-.98-7.295 4.713-16.076 10.034-16.482 3.158-.238 5.787.462 8.06 2.26Zm8.124 31.872c-4.145-6.102-7.003-13.435-7.982-21.442a45.462 45.462 0 0 1-.252-2.698c-1.784-1.743-3.727-2.854-5.463-2.717-4.524.344-8.44 9.231-7.73 15.071.845 7.04 3.585 12.317 7.888 16.989 3.347 3.647 8.478 5.927 12.915 7.17.119.044.948-7.607.206-7.82-3.924-1.099-5.74-3.354-8.21-5.021-2.298-1.556-5.061-7.395-5.456-9.569-.545-2.93-1.555-6.602 1.5-6.833 3.047-.237 3.592 3.08 4.066 6.927.497 4.084 4.57 8.07 8.518 9.943Zm21.9-52.808v11.23c0 2.042 2.1 3.703 4.682 3.703 2.581 0 4.681-1.66 4.681-3.703v-11.23c0-2.043-2.1-3.704-4.681-3.704-2.582 0-4.682 1.661-4.682 3.704Zm40.05 0v11.23c0 2.042 2.1 3.703 4.682 3.703 2.59 0 4.681-1.66 4.681-3.703v-11.23c0-2.043-2.092-3.704-4.681-3.704-2.582 0-4.682 1.661-4.682 3.704Zm-41.937 57.505 2.874 4.128c.82 1.18 2.392 1.918 4.097 1.918h40.76c1.47 0 2.85-.544 3.735-1.468l3.584-3.735c1.555-1.624 1.153-3.954-.9-5.19-2.06-1.23-4.997-.912-6.56.712L124.98 131H89.314l-1.547-2.217c-1.247-1.786-4.097-2.442-6.363-1.449-2.258.987-3.087 3.242-1.832 5.028Zm32.021-20.911v-10.774c0-2.042-2.1-3.704-4.681-3.704-2.59 0-4.682 1.662-4.682 3.704v10.786c-2.384.175-4.255 1.762-4.255 3.692 0 2.042 2.1 3.703 4.681 3.703h9.293c2.589 0 4.681-1.66 4.681-3.703 0-2.049-2.092-3.704-4.681-3.704h-.356ZM54.734 82.745a38.974 38.974 0 0 1 3.49-6.408c-6.158-4.622-12.821-7.258-17.874-6.87-8.59.655-28.84 15.695-25.153 37.787.806 4.834 3.293 17.076 5.18 21.704.378.912 5.928 1.062 6.576.662.647-.412-.221-1.374-.584-2.292-2.282-5.609-3.94-16.096-4.28-18.9-.457-3.773-.355-7.208.332-10.2 2.037-9.043 11.424-19.511 18.995-20.092 4.153-.319 8.937 1.486 13.318 4.61Z"/></svg>
