<svg xmlns="http://www.w3.org/2000/svg" xml:space="preserve" style="fill-rule:evenodd;clip-rule:evenodd;stroke-linejoin:round;stroke-miterlimit:2" viewBox="0 0 24 24"><path d="m16.847 39.021 1.947-6.137-2.656-5.961a.934.934 0 0 1-.051-.748.967.967 0 0 1 .456-.55.768.768 0 0 1 .669-.044c.23.088.399.25.507.484l1.906 4.267c1.581-4.34 4.156-7.823 7.724-10.448h.02l-2.655-5.895a.96.96 0 0 1-.041-.725.91.91 0 0 1 .466-.55.764.764 0 0 1 .669-.044c.23.088.399.249.507.484l2.494 5.565c2.771-2.508 4.737-5.587 5.899-9.239l.568-1.737a.88.88 0 0 1 .446-.539.788.788 0 0 1 .669-.033.783.783 0 0 1 .517.473c.102.242.112.487.031.736l-.548 1.738c-1.189 3.725-3.149 6.907-5.879 9.546l4.237.506a.754.754 0 0 1 .588.33c.149.206.216.44.203.704a.97.97 0 0 1-.325.649.792.792 0 0 1-.648.209l-6.042-.704-.182.132c-3.433 2.522-5.853 5.895-7.258 10.118l5.453.616a.822.822 0 0 1 .588.352c.149.205.216.44.203.704a.95.95 0 0 1-.325.627.867.867 0 0 1-.648.231l-5.88-.682-1.966 6.181-1.663-.616Z" style="fill:#5caa32;fill-rule:nonzero" transform="matrix(.59723 0 0 .54096 -5.425 2.558)"/><path d="M40.162-4.729c.797 1.76 1.125 3.578.983 5.455-.142 1.877-.689 3.6-1.642 5.169a9.845 9.845 0 0 1-3.882 3.651c-.798-1.774-1.122-3.596-.973-5.466A11.557 11.557 0 0 1 36.3-1.078a9.876 9.876 0 0 1 3.862-3.651ZM28.201 6.445a6.912 6.912 0 0 1 .608 3.431 7.294 7.294 0 0 1-1.034 3.234 6.147 6.147 0 0 1-2.433 2.287l-2.636-5.895c-.5-1.1-.706-2.24-.618-3.42a7.145 7.145 0 0 1 1.034-3.245A6.253 6.253 0 0 1 25.545.55l2.656 5.895Zm-7.927 10.14a8.963 8.963 0 0 1 .76 4.366 9.317 9.317 0 0 1-1.308 4.146 7.752 7.752 0 0 1-3.102 2.926l-3.385-7.545c-.636-1.422-.896-2.881-.781-4.377a9.236 9.236 0 0 1 1.318-4.135 7.868 7.868 0 0 1 3.092-2.926l3.406 7.545Zm25.646.044c-.108 1.217-.49 2.299-1.146 3.244a6.476 6.476 0 0 1-2.463 2.156 5.652 5.652 0 0 1-3.163.561l-6.021-.682c.122-1.232.507-2.321 1.156-3.266a6.393 6.393 0 0 1 2.453-2.156 5.506 5.506 0 0 1 3.163-.539l6.021.682Zm-12.509 9.722c-1.46-.176-2.818.052-4.075.682-1.257.631-2.301 1.551-3.132 2.761-.832 1.209-1.328 2.599-1.49 4.168l7.704.88c1.446.161 2.801-.074 4.064-.704 1.264-.631 2.312-1.551 3.143-2.761.831-1.209 1.321-2.599 1.47-4.168l-7.684-.858Z" style="fill:#607b43;fill-rule:nonzero" transform="matrix(.59723 0 0 .54096 -5.425 2.558)"/></svg>