<svg xmlns="http://www.w3.org/2000/svg" xml:space="preserve" style="fill-rule:evenodd;clip-rule:evenodd;stroke-linejoin:round;stroke-miterlimit:2" viewBox="0 0 24 24"><path d="m16.847 39.021 1.947-6.137-2.656-5.961a.933.933 0 0 1-.051-.748.968.968 0 0 1 .456-.55.768.768 0 0 1 .669-.044c.23.088.399.25.507.484l1.906 4.267c1.581-4.34 4.156-7.823 7.724-10.448h.02l-2.655-5.895a.958.958 0 0 1-.041-.725.908.908 0 0 1 .466-.55.765.765 0 0 1 .669-.044c.23.088.399.249.507.484l2.494 5.565c2.771-2.508 4.737-5.587 5.899-9.239l.568-1.737a.88.88 0 0 1 .446-.539.79.79 0 0 1 .669-.033.783.783 0 0 1 .517.473c.102.242.112.487.031.736l-.548 1.738c-1.189 3.725-3.149 6.907-5.879 9.546l4.237.506a.755.755 0 0 1 .588.33c.149.206.216.44.203.704a.968.968 0 0 1-.325.649.792.792 0 0 1-.648.209l-6.042-.704-.182.132c-3.433 2.522-5.853 5.895-7.258 10.118l5.453.616a.823.823 0 0 1 .588.352c.149.205.216.44.203.704a.95.95 0 0 1-.325.627.868.868 0 0 1-.648.231l-5.88-.682-1.966 6.181-1.663-.616Z" style="fill:#44911b;fill-rule:nonzero" transform="matrix(.59723 0 0 .54096 -5.425 2.558)"/><path d="M40.162-4.729c.797 1.76 1.125 3.578.983 5.455-.142 1.877-.689 3.6-1.642 5.169a9.843 9.843 0 0 1-3.882 3.651c-.798-1.774-1.122-3.596-.973-5.466A11.555 11.555 0 0 1 36.3-1.078a9.877 9.877 0 0 1 3.862-3.651ZM28.201 6.445a6.91 6.91 0 0 1 .608 3.431 7.294 7.294 0 0 1-1.034 3.234 6.144 6.144 0 0 1-2.433 2.287l-2.636-5.895c-.5-1.1-.706-2.24-.618-3.42a7.146 7.146 0 0 1 1.034-3.245A6.252 6.252 0 0 1 25.545.55l2.656 5.895ZM20.274 16.585a8.969 8.969 0 0 1 .76 4.366 9.324 9.324 0 0 1-1.308 4.146 7.755 7.755 0 0 1-3.102 2.926l-3.385-7.545c-.636-1.422-.896-2.881-.781-4.377a9.232 9.232 0 0 1 1.318-4.135 7.873 7.873 0 0 1 3.092-2.926l3.406 7.545ZM45.92 16.629c-.108 1.217-.49 2.299-1.146 3.244a6.47 6.47 0 0 1-2.463 2.156 5.645 5.645 0 0 1-3.163.561l-6.021-.682c.122-1.232.507-2.321 1.156-3.266a6.392 6.392 0 0 1 2.453-2.156 5.507 5.507 0 0 1 3.163-.539l6.021.682ZM33.411 26.351c-1.46-.176-2.818.052-4.075.682-1.257.631-2.301 1.551-3.132 2.761-.832 1.209-1.328 2.599-1.49 4.168l7.704.88c1.446.161 2.801-.074 4.064-.704 1.264-.631 2.312-1.551 3.143-2.761.831-1.209 1.321-2.599 1.47-4.168l-7.684-.858Z" style="fill:#86d72f;fill-rule:nonzero" transform="matrix(.59723 0 0 .54096 -5.425 2.558)"/></svg>