<svg xmlns="http://www.w3.org/2000/svg" width="24" height="24" fill="none"><path fill="#000" d="M3 20v-2.35c0-.633.158-1.175.475-1.625A3.05 3.05 0 0 1 4.7 15c1.117-.5 2.188-.875 3.212-1.125a12.98 12.98 0 0 1 4.35-.313c.409.042.83.105 1.263.188a4.94 4.94 0 0 0 .537 2.737A4.797 4.797 0 0 0 16 18.5V20H3Zm16 3.675-1.5-1.5v-4.65a3.445 3.445 0 0 1-1.8-1.238c-.467-.608-.7-1.312-.7-2.112 0-.967.342-1.792 1.025-2.475.683-.683 1.508-1.025 2.475-1.025s1.792.342 2.475 1.025A3.372 3.372 0 0 1 22 14.175a3.31 3.31 0 0 1-.637 2c-.425.583-.963 1-1.613 1.25l1.25 1.25-1.5 1.5 1.5 1.5-2 2ZM11 11.5c-1.05 0-1.938-.362-2.663-1.087C7.614 9.686 7.25 8.8 7.25 7.75s.362-1.938 1.087-2.663C9.064 4.364 9.95 4 11 4s1.938.362 2.663 1.087c.724.726 1.087 1.613 1.087 2.663s-.362 1.938-1.087 2.663C12.936 11.136 12.05 11.5 11 11.5Zm7.5 3.175c.283 0 .52-.096.713-.287s.287-.43.287-.713-.096-.52-.287-.713-.43-.287-.713-.287-.52.096-.713.287-.287.43-.287.713.096.52.287.713.43.287.713.287Z"/></svg>